<svg xmlns="http://www.w3.org/2000/svg" width="1200" height="630" viewBox="0 0 1200 630">
  <defs>
    <linearGradient id="grad" x1="0%" y1="0%" x2="100%" y2="100%">
      <stop offset="0%" stop-color="#7c3aed"/>
      <stop offset="100%" stop-color="#ec4899"/>
    </linearGradient>
  </defs>

  <!-- Simple purple -> pink background -->
  <rect width="1200" height="630" fill="url(#grad)"/>

  <!-- Subtle soft vignette -->
  <ellipse cx="600" cy="315" rx="520" ry="260" fill="#000" opacity="0.06"/>

  <!-- Main text -->
  <g font-family="system-ui, -apple-system, Segoe UI, Roboto, sans-serif" fill="#fff">
    <text x="80" y="260" font-size="76" font-weight="700">Honest Heaven</text>
    <text x="80" y="320" font-size="28" fill-opacity="0.95">LGBT community — mutual support, resources, and wellbeing</text>
  </g>

  <!-- Small rainbow accent bar -->
  <g transform="translate(80, 350)">
    <rect x="0" y="0" width="520" height="12" rx="6" fill="#fff" fill-opacity="0.06"/>
    <g transform="translate(0,0)">
      <rect x="0" y="0" width="88" height="12" rx="6" fill="#e11d48"/>
      <rect x="88" y="0" width="88" height="12" rx="6" fill="#f97316"/>
      <rect x="176" y="0" width="88" height="12" rx="6" fill="#fbbf24"/>
      <rect x="264" y="0" width="88" height="12" rx="6" fill="#22c55e"/>
      <rect x="352" y="0" width="88" height="12" rx="6" fill="#3b82f6"/>
      <rect x="440" y="0" width="80" height="12" rx="6" fill="#8b5cf6"/>
    </g>
  </g>

  <!-- URL badge -->
  <g transform="translate(80, 390)">
    <rect width="260" height="44" rx="22" fill="#ffffff" fill-opacity="0.08"/>
    <text x="130" y="30" font-family="system-ui, sans-serif" font-size="16" fill="#ffffff" fill-opacity="0.95" text-anchor="middle">honestheaven.org</text>
  </g>

</svg>
